<svg xmlns="http://www.w3.org/2000/svg" xmlns:svg="http://www.w3.org/2000/svg" id="Layer_1" width="100" height="100" x="0" style="enable-background:new 0 0 100 100" y="0" version="1.1" viewBox="0 0 100 100" xml:space="preserve"><metadata id="metadata84"/><style id="style2" type="text/css"><![CDATA[
  .st0{clip-path:url(#SVGID_2_);fill:url(#SVGID_3_);}
  .st1{clip-path:url(#SVGID_5_);fill:url(#SVGID_6_);}
  .st2{clip-path:url(#SVGID_8_);fill:url(#SVGID_9_);}
]]></style><g id="g158" transform="matrix(0.19531181,0,0,0.19531259,57.186885,24.033159)" style="stroke-width:5.12001"><path style="fill:#009dd9;stroke-width:5.12001" id="path2" d="m 184.05296,-87.898714 c 46.86795,46.857 46.86795,122.836 0,169.704 L 85.173864,180.69529 c -13.312,13.312 -28.965,22.832 -45.641,28.582 -25.364,8.743 -53.068,8.743 -78.432,0 -16.677,-5.75 -32.329,-15.27 -45.641,-28.582 -13.301,-13.312 -22.832004,-28.965 -28.582004,-45.641 l 2.104,-2.104 c -2.104,2.104 37.087004,-37.849004 37.087004,-37.849004 l 37.137,37.849004 c 20.458,20.469 53.755,20.469 74.224,0 l 2.104,-2.104 96.785996,-96.786004 c 20.458,-20.458 20.458,-53.755 0,-74.224 -20.469,-20.458 -53.765996,-20.458 -74.223996,0 l -96.786,96.786 -39.217,15.948 -39.216004,-15.949 c 5.75,-16.665 15.270004,-32.329 28.582004,-45.641 l 98.89,-98.879 c 46.868,-46.867996 122.846996,-46.867996 169.704096,0 z"/><path style="fill:#f06116;stroke-width:5.12001" id="path4" d="m -34.691136,56.621286 c 16.665,5.75 32.3180003,15.281 45.63,28.593 13.312,13.301 22.843,28.965004 28.593,45.630004 l -2.104,2.104 c -20.469,20.469 -53.766,20.469 -74.224,0 -20.469,-20.458 -53.766,-20.458 -74.224004,0 l -2.104,2.104 -96.786,96.786 c -20.469,20.469 -20.469,53.766 0,74.224 20.458,20.469 53.755,20.469 74.224,0 l 96.786004,-96.786 c 25.364,8.743 53.068,8.743 78.432,0 -5.75,16.677 -15.281,32.329 -28.593,45.641 l -98.879,98.89 c -46.868004,46.857 -122.847004,46.857 -169.715004,0 -46.857,-46.868 -46.857,-122.847 0,-169.715 l 98.89,-98.879004 c 13.312,-13.312 28.965,-22.843 45.641,-28.593 25.365004,-8.741 53.069004,-8.741 78.433004,10e-4 z"/><flowRoot id="flowRoot853" transform="translate(-1478.2788,389.61478)" xml:space="preserve" style="font-style:normal;font-weight:400;font-size:40px;line-height:1.25;font-family:sans-serif;letter-spacing:0;word-spacing:0;fill:#000;fill-opacity:1;stroke:none;stroke-width:5.12001"><flowRegion id="flowRegion855" style="stroke-width:5.12001"><rect id="rect857" width="991.46" height="310.238" x="1152.002" y="242.982" style="stroke-width:5.12001"/></flowRegion><flowPara id="flowPara859" style="stroke-width:5.12001"/></flowRoot></g></svg>